<svg width="258" height="185" viewBox="0 0 258 185" fill="none" xmlns="http://www.w3.org/2000/svg">
<path fill-rule="evenodd" clip-rule="evenodd" d="M204.527 30.3123C204.527 30.3123 163.555 40.1825 145.471 72.6371C127.388 105.092 132.764 155.112 132.764 155.112C132.764 155.112 182.289 143.569 196.789 107.434C211.288 71.2987 204.527 30.3123 204.527 30.3123ZM53.4733 30.3123C53.4733 30.3123 94.4455 40.1825 112.529 72.6371C130.612 105.092 125.236 155.112 125.236 155.112C125.236 155.112 75.7107 143.569 61.2116 107.434C46.7124 71.2987 53.4733 30.3123 53.4733 30.3123Z" fill="white"/>
<path fill-rule="evenodd" clip-rule="evenodd" d="M210.717 83.5528C210.717 83.5528 224.402 81.0016 235.317 81.9217C246.232 82.8418 257.717 86.355 257.717 86.355C257.717 86.355 243.218 121.988 223.18 140.557C203.142 159.127 189.783 162.473 175.61 162.975C161.437 163.476 142.702 159.629 142.702 159.629C142.702 159.629 174.47 149.089 191.412 128.011C208.355 106.932 210.717 83.5528 210.717 83.5528ZM47.2826 83.5528C47.2826 83.5528 33.598 81.0016 22.6829 81.9217C11.7679 82.8418 0.282593 86.355 0.282593 86.355C0.282593 86.355 14.7817 121.988 34.8198 140.557C54.858 159.127 68.2167 162.473 82.39 162.975C96.5633 163.476 115.298 159.629 115.298 159.629C115.298 159.629 83.5304 149.089 66.5876 128.011C49.6448 106.932 47.2826 83.5528 47.2826 83.5528Z" fill="white"/>
<path fill-rule="evenodd" clip-rule="evenodd" d="M129 0.772858C154.516 19.1674 162.919 42.5303 162.919 42.5303C162.919 42.5303 148.001 55.1877 142.932 63.1133C137.864 71.0389 129 97.5366 129 97.5366V0.772858ZM129 0.772858C103.484 19.1674 95.0813 42.5303 95.0813 42.5303C95.0813 42.5303 109.999 55.1877 115.068 63.1133C120.136 71.0389 129 97.5366 129 97.5366V0.772858Z" fill="white"/>
<path fill-rule="evenodd" clip-rule="evenodd" d="M129 161.803C157.347 171.172 164.726 170.078 164.726 170.078C164.726 170.078 145.78 184.722 129 184.555M129 161.803C100.653 171.172 93.2737 170.078 93.2737 170.078C93.2737 170.078 112.22 184.722 129 184.555" fill="white"/>
</svg>