<svg width="423" height="99" viewBox="0 0 423 99" fill="none" xmlns="http://www.w3.org/2000/svg">
<line x1="9.5" y1="70.2101" x2="9.5" y2="28.7898" stroke="#F6F6F6" stroke-width="5" stroke-linecap="round"/>
<line x1="21.5" y1="63.4039" x2="21.5" y2="35.5961" stroke="#F6F6F6" stroke-width="5" stroke-linecap="round"/>
<line x1="33.5" y1="77.8689" x2="33.5" y2="21.1311" stroke="#F6F6F6" stroke-width="5" stroke-linecap="round"/>
<line x1="45.5" y1="86.0664" x2="45.5" y2="12.9336" stroke="#F6F6F6" stroke-width="5" stroke-linecap="round"/>
<line x1="57.5" y1="84.2169" x2="57.5" y2="14.7831" stroke="#F6F6F6" stroke-width="5" stroke-linecap="round"/>
<line x1="69.5" y1="67.7651" x2="69.5" y2="31.2348" stroke="#F6F6F6" stroke-width="5" stroke-linecap="round"/>
<line x1="81.5" y1="61.0937" x2="81.5" y2="37.9063" stroke="#F6F6F6" stroke-width="5" stroke-linecap="round"/>
<line x1="93.5" y1="61.2542" x2="93.5" y2="37.7458" stroke="#F6F6F6" stroke-width="5" stroke-linecap="round"/>
<line x1="105.5" y1="62.87" x2="105.5" y2="36.13" stroke="#F6F6F6" stroke-width="5" stroke-linecap="round"/>
<line x1="117.5" y1="62.7195" x2="117.5" y2="36.2805" stroke="#F6F6F6" stroke-width="5" stroke-linecap="round"/>
<line x1="129.5" y1="66.3959" x2="129.5" y2="32.6041" stroke="#F6F6F6" stroke-width="5" stroke-linecap="round"/>
<line x1="141.5" y1="75.397" x2="141.5" y2="23.603" stroke="#F6F6F6" stroke-width="5" stroke-linecap="round"/>
<line x1="153.5" y1="62.8726" x2="153.5" y2="36.1274" stroke="#F6F6F6" stroke-width="5" stroke-linecap="round"/>
<line x1="165.5" y1="82.8494" x2="165.5" y2="16.1506" stroke="#F6F6F6" stroke-width="5" stroke-linecap="round"/>
<line x1="177.5" y1="84.0179" x2="177.5" y2="14.9821" stroke="#F6F6F6" stroke-width="5" stroke-linecap="round"/>
<line x1="189.5" y1="74.4452" x2="189.5" y2="24.5548" stroke="#F6F6F6" stroke-width="5" stroke-linecap="round"/>
<line x1="201.5" y1="71.6571" x2="201.5" y2="27.3429" stroke="#F6F6F6" stroke-width="5" stroke-linecap="round"/>
<line x1="213.5" y1="69.2894" x2="213.5" y2="29.7106" stroke="#F6F6F6" stroke-width="5" stroke-linecap="round"/>
<line x1="225.5" y1="80.5628" x2="225.5" y2="18.4372" stroke="#F6F6F6" stroke-width="5" stroke-linecap="round"/>
<line x1="237.5" y1="57.303" x2="237.5" y2="41.697" stroke="#F6F6F6" stroke-width="5" stroke-linecap="round"/>
<line x1="249.5" y1="59.9369" x2="249.5" y2="39.0631" stroke="#F6F6F6" stroke-width="5" stroke-linecap="round"/>
<line x1="261.5" y1="68.8369" x2="261.5" y2="30.1631" stroke="#F6F6F6" stroke-width="5" stroke-linecap="round"/>
<line x1="273.5" y1="69.0595" x2="273.5" y2="29.9405" stroke="#F6F6F6" stroke-width="5" stroke-linecap="round"/>
<line x1="285.5" y1="78.6782" x2="285.5" y2="20.3218" stroke="#F6F6F6" stroke-width="5" stroke-linecap="round"/>
<line x1="297.5" y1="67.6425" x2="297.5" y2="31.3575" stroke="#F6F6F6" stroke-width="5" stroke-linecap="round"/>
<line x1="309.5" y1="75.9272" x2="309.5" y2="23.0728" stroke="#F6F6F6" stroke-width="5" stroke-linecap="round"/>
<line x1="321.5" y1="69.3707" x2="321.5" y2="29.6293" stroke="#F6F6F6" stroke-width="5" stroke-linecap="round"/>
<line x1="333.5" y1="76.6395" x2="333.5" y2="22.3605" stroke="#F6F6F6" stroke-width="5" stroke-linecap="round"/>
<line x1="345.5" y1="71.935" x2="345.5" y2="27.065" stroke="#F6F6F6" stroke-width="5" stroke-linecap="round"/>
<line x1="357.5" y1="67.9753" x2="357.5" y2="31.0247" stroke="#F6F6F6" stroke-width="5" stroke-linecap="round"/>
<line x1="369.5" y1="63.3277" x2="369.5" y2="35.6723" stroke="#F6F6F6" stroke-width="5" stroke-linecap="round"/>
<line x1="381.5" y1="59.2788" x2="381.5" y2="39.7212" stroke="#F6F6F6" stroke-width="5" stroke-linecap="round"/>
<line x1="393.5" y1="67.8133" x2="393.5" y2="31.1867" stroke="#F6F6F6" stroke-width="5" stroke-linecap="round"/>
<line x1="405.5" y1="78.4023" x2="405.5" y2="20.5977" stroke="#F6F6F6" stroke-width="5" stroke-linecap="round"/>
<line x1="417.5" y1="75.8991" x2="417.5" y2="23.1009" stroke="#F6F6F6" stroke-width="5" stroke-linecap="round"/>
</svg>
