<?xml version="1.0" encoding="UTF-8" standalone="no"?>
<svg
   width="512"
   height="512"
   viewBox="0 0 512 512"
   fill="none"
   version="1.1"
   id="svg10"
   sodipodi:docname="logo.svg"
   inkscape:version="1.2.2 (732a01da63, 2022-12-09)"
   inkscape:export-filename="logo-1024.png"
   inkscape:export-xdpi="192"
   inkscape:export-ydpi="192"
   xmlns:inkscape="http://www.inkscape.org/namespaces/inkscape"
   xmlns:sodipodi="http://sodipodi.sourceforge.net/DTD/sodipodi-0.dtd"
   xmlns="http://www.w3.org/2000/svg"
   xmlns:svg="http://www.w3.org/2000/svg">
  <defs
     id="defs14" />
  <sodipodi:namedview
     id="namedview12"
     pagecolor="#505050"
     bordercolor="#ffffff"
     borderopacity="1"
     inkscape:showpageshadow="0"
     inkscape:pageopacity="0"
     inkscape:pagecheckerboard="1"
     inkscape:deskcolor="#505050"
     showgrid="false"
     inkscape:zoom="1.1899225"
     inkscape:cx="215.56026"
     inkscape:cy="317.66775"
     inkscape:window-width="1857"
     inkscape:window-height="1057"
     inkscape:window-x="-8"
     inkscape:window-y="-8"
     inkscape:window-maximized="1"
     inkscape:current-layer="svg10" />
  <path
     fill-rule="evenodd"
     clip-rule="evenodd"
     d="m 378.96273,148.63227 c 0,0 -66.61344,16.04724 -96.01492,68.81285 -29.39985,52.7661 -20.6594,134.09005 -20.6594,134.09005 0,0 80.51915,-18.76695 104.09366,-77.51625 23.57289,-58.7498 12.58066,-125.38665 12.58066,-125.38665 z m -245.5874,0 c 0,0 66.61377,16.04724 96.01444,68.81285 29.39986,52.7661 20.6594,134.09005 20.6594,134.09005 0,0 -80.51964,-18.76695 -104.09268,-77.51625 -23.57322,-58.7498 -12.58116,-125.38665 -12.58116,-125.38665 z"
     fill="#ffffff"
     id="path2"
     style="stroke-width:1.62583" />
  <path
     fill-rule="evenodd"
     clip-rule="evenodd"
     d="m 389.02661,235.19218 c 0,0 22.24946,-4.14781 39.99538,-2.65188 17.74592,1.49592 36.41856,7.20778 36.41856,7.20778 0,0 -23.57288,57.93315 -56.15123,88.12315 -32.57836,30.19163 -54.2978,35.63166 -77.34067,36.44783 -23.04286,0.81453 -53.50276,-5.44003 -53.50276,-5.44003 0,0 51.64932,-17.13623 79.1941,-51.40544 27.54642,-34.27084 31.38662,-72.28141 31.38662,-72.28141 z m -265.71629,0 c 0,0 -22.24881,-4.14781 -39.994893,-2.65188 -17.745918,1.49592 -36.419057,7.20778 -36.419057,7.20778 0,0 23.573061,57.93315 56.15157,88.12315 32.57868,30.19163 54.29763,35.63166 77.34099,36.44783 23.04335,0.81453 53.50276,-5.44003 53.50276,-5.44003 0,0 -51.64867,-17.13623 -79.19475,-51.40544 -27.54609,-34.27084 -31.38662,-72.28141 -31.38662,-72.28141 z"
     fill="#ffffff"
     id="path4"
     style="stroke-width:1.62583" />
  <path
     fill-rule="evenodd"
     clip-rule="evenodd"
     d="m 256.16879,100.6062 c 41.48464,29.90637 55.14648,67.89044 55.14648,67.89044 0,0 -24.25411,20.57876 -32.49544,33.46442 -8.23969,12.88567 -22.65104,55.96638 -22.65104,55.96638 z m 0,0 c -41.48463,29.90637 -55.14598,67.89044 -55.14598,67.89044 0,0 24.25362,20.57876 32.49494,33.46442 8.2397,12.88567 22.65104,55.96638 22.65104,55.96638 z"
     fill="#ffffff"
     id="path6"
     style="stroke-width:1.62583" />
  <path
     fill-rule="evenodd"
     clip-rule="evenodd"
     d="m 256.16879,362.41358 c 46.08736,15.23239 58.08435,13.45374 58.08435,13.45374 0,0 -30.80295,23.80862 -58.08435,23.53711 m 0,-36.99085 c -46.08736,15.23239 -58.08484,13.45374 -58.08484,13.45374 0,0 30.80344,23.80862 58.08484,23.53711"
     fill="#ffffff"
     id="path8"
     style="stroke-width:1.62583" />
</svg>
