<svg xmlns="http://www.w3.org/2000/svg" width="193" height="193" viewBox="0 0 193 193" fill="none">
  <path d="M160.547 51.3608C159.202 50.3037 145.556 38.8683 125.28 38.8683C104.908 38.8683 91.3585 50.3037 90.0132 51.3608L125.28 96.5257L160.547 51.3608Z" fill="black"/>
  <path d="M138.06 118.916C130.084 118.916 122.397 117.667 115.189 115.264C112.979 114.592 110.481 115.072 108.655 116.802L94.5288 130.928C76.3668 121.703 61.5681 106.904 52.3429 88.742L66.4689 74.6159C68.2947 72.8862 68.7752 70.3877 68.1026 68.1775C65.7002 60.9703 64.4509 53.2827 64.4509 45.3068C64.4509 41.7512 61.5681 38.8683 58.0125 38.8683H35.6222C32.0667 38.8683 29.1838 41.7512 29.1838 45.3068C29.1838 105.463 77.9043 154.183 138.06 154.183C141.616 154.183 144.499 151.3 144.499 147.745V125.354C144.499 121.799 141.616 118.916 138.06 118.916Z" fill="black"/>
</svg>