<svg width="41" height="52" viewBox="0 0 41 52" fill="none" xmlns="http://www.w3.org/2000/svg">
<path d="M20.4969 32.586C25.2933 32.586 29.165 29.0559 29.165 24.6828V8.8764C29.165 4.5033 25.2933 0.973206 20.4969 0.973206C15.7006 0.973206 11.8288 4.5033 11.8288 8.8764V24.6828C11.8288 29.0559 15.7006 32.586 20.4969 32.586ZM37.573 24.6828C36.1573 24.6828 34.9726 25.6312 34.7415 26.922C33.5568 33.1129 27.6336 37.8548 20.4969 37.8548C13.3602 37.8548 7.43702 33.1129 6.25238 26.922C6.02123 25.6312 4.8366 24.6828 3.42081 24.6828C1.6583 24.6828 0.271408 26.1054 0.531451 27.686C1.94724 35.5892 8.8817 41.78 17.6076 42.9128V48.3924C17.6076 49.8413 18.9078 51.0268 20.4969 51.0268C22.0861 51.0268 23.3863 49.8413 23.3863 48.3924V42.9128C32.1122 41.78 39.0466 35.5892 40.4624 27.686C40.7513 26.1054 39.3356 24.6828 37.573 24.6828Z" fill="#F6F6F6"/>
</svg>
