<svg width="539" height="169" viewBox="0 0 539 169" fill="none" xmlns="http://www.w3.org/2000/svg">
<line x1="11.5" y1="100.538" x2="11.5" y2="68.462" stroke="#F7F7F7" stroke-width="5" stroke-linecap="round"/>
<line x1="25.5" y1="148.254" x2="25.5" y2="20.7457" stroke="#F7F7F7" stroke-width="5" stroke-linecap="round"/>
<line x1="39.5" y1="131.281" x2="39.5" y2="37.7194" stroke="#F7F7F7" stroke-width="5" stroke-linecap="round"/>
<line x1="53.5" y1="115.487" x2="53.5" y2="53.513" stroke="#F7F7F7" stroke-width="5" stroke-linecap="round"/>
<line x1="67.5" y1="146.582" x2="67.5" y2="22.4178" stroke="#F7F7F7" stroke-width="5" stroke-linecap="round"/>
<line x1="81.5" y1="119.405" x2="81.5" y2="49.5953" stroke="#F7F7F7" stroke-width="5" stroke-linecap="round"/>
<line x1="95.5" y1="135.96" x2="95.5" y2="33.0396" stroke="#F7F7F7" stroke-width="5" stroke-linecap="round"/>
<line x1="109.5" y1="113.614" x2="109.5" y2="55.3858" stroke="#F7F7F7" stroke-width="5" stroke-linecap="round"/>
<line x1="123.5" y1="109.994" x2="123.5" y2="59.0056" stroke="#F7F7F7" stroke-width="5" stroke-linecap="round"/>
<line x1="137.5" y1="133.743" x2="137.5" y2="35.2574" stroke="#F7F7F7" stroke-width="5" stroke-linecap="round"/>
<line x1="151.5" y1="99.8763" x2="151.5" y2="69.1238" stroke="#F7F7F7" stroke-width="5" stroke-linecap="round"/>
<line x1="165.5" y1="106.627" x2="165.5" y2="62.3734" stroke="#F7F7F7" stroke-width="5" stroke-linecap="round"/>
<line x1="179.5" y1="117.787" x2="179.5" y2="51.2125" stroke="#F7F7F7" stroke-width="5" stroke-linecap="round"/>
<line x1="193.5" y1="142.655" x2="193.5" y2="26.3452" stroke="#F7F7F7" stroke-width="5" stroke-linecap="round"/>
<line x1="207.5" y1="131.218" x2="207.5" y2="37.7817" stroke="#F7F7F7" stroke-width="5" stroke-linecap="round"/>
<line x1="221.5" y1="102.305" x2="221.5" y2="66.6947" stroke="#F7F7F7" stroke-width="5" stroke-linecap="round"/>
<line x1="235.5" y1="123.884" x2="235.5" y2="45.1156" stroke="#F7F7F7" stroke-width="5" stroke-linecap="round"/>
<line x1="249.5" y1="136.418" x2="249.5" y2="32.5817" stroke="#F7F7F7" stroke-width="5" stroke-linecap="round"/>
<line x1="263.5" y1="138.641" x2="263.5" y2="30.359" stroke="#F7F7F7" stroke-width="5" stroke-linecap="round"/>
<line x1="277.5" y1="140.849" x2="277.5" y2="28.1514" stroke="#F7F7F7" stroke-width="5" stroke-linecap="round"/>
<line x1="291.5" y1="119.123" x2="291.5" y2="49.8775" stroke="#F7F7F7" stroke-width="5" stroke-linecap="round"/>
<line x1="305.5" y1="99.6515" x2="305.5" y2="69.3484" stroke="#F7F7F7" stroke-width="5" stroke-linecap="round"/>
<line x1="319.5" y1="121.571" x2="319.5" y2="47.4287" stroke="#F7F7F7" stroke-width="5" stroke-linecap="round"/>
<line x1="333.5" y1="138.975" x2="333.5" y2="30.0247" stroke="#F7F7F7" stroke-width="5" stroke-linecap="round"/>
<line x1="347.5" y1="140.821" x2="347.5" y2="28.1786" stroke="#F7F7F7" stroke-width="5" stroke-linecap="round"/>
<line x1="361.5" y1="132.135" x2="361.5" y2="36.8653" stroke="#F7F7F7" stroke-width="5" stroke-linecap="round"/>
<line x1="375.5" y1="129.3" x2="375.5" y2="39.6996" stroke="#F7F7F7" stroke-width="5" stroke-linecap="round"/>
<line x1="389.5" y1="125.67" x2="389.5" y2="43.3302" stroke="#F7F7F7" stroke-width="5" stroke-linecap="round"/>
<line x1="403.5" y1="112.343" x2="403.5" y2="56.6567" stroke="#F7F7F7" stroke-width="5" stroke-linecap="round"/>
<line x1="417.5" y1="106.509" x2="417.5" y2="62.4913" stroke="#F7F7F7" stroke-width="5" stroke-linecap="round"/>
<line x1="431.5" y1="127.813" x2="431.5" y2="41.1871" stroke="#F7F7F7" stroke-width="5" stroke-linecap="round"/>
<line x1="445.5" y1="145.042" x2="445.5" y2="23.9585" stroke="#F7F7F7" stroke-width="5" stroke-linecap="round"/>
<line x1="459.5" y1="105.752" x2="459.5" y2="63.248" stroke="#F7F7F7" stroke-width="5" stroke-linecap="round"/>
<line x1="473.5" y1="129.412" x2="473.5" y2="39.5877" stroke="#F7F7F7" stroke-width="5" stroke-linecap="round"/>
<line x1="487.5" y1="127.736" x2="487.5" y2="41.2636" stroke="#F7F7F7" stroke-width="5" stroke-linecap="round"/>
<line x1="501.5" y1="147.524" x2="501.5" y2="21.4761" stroke="#F7F7F7" stroke-width="5" stroke-linecap="round"/>
<line x1="515.5" y1="124.845" x2="515.5" y2="44.1551" stroke="#F7F7F7" stroke-width="5" stroke-linecap="round"/>
<line x1="529.5" y1="112.408" x2="529.5" y2="56.5923" stroke="#F7F7F7" stroke-width="5" stroke-linecap="round"/>
</svg>
