<svg width="423" height="99" viewBox="0 0 423 99" fill="none" xmlns="http://www.w3.org/2000/svg">
<line x1="9.5" y1="64.2189" x2="9.5" y2="34.7812" stroke="#F6F6F6" stroke-width="5" stroke-linecap="round"/>
<line x1="21.5" y1="72.6453" x2="21.5" y2="26.3547" stroke="#F6F6F6" stroke-width="5" stroke-linecap="round"/>
<line x1="33.5" y1="61.077" x2="33.5" y2="37.9229" stroke="#F6F6F6" stroke-width="5" stroke-linecap="round"/>
<line x1="45.5" y1="57.5985" x2="45.5" y2="41.4016" stroke="#F6F6F6" stroke-width="5" stroke-linecap="round"/>
<line x1="57.5" y1="79.8799" x2="57.5" y2="19.1202" stroke="#F6F6F6" stroke-width="5" stroke-linecap="round"/>
<line x1="69.5" y1="65.973" x2="69.5" y2="33.0269" stroke="#F6F6F6" stroke-width="5" stroke-linecap="round"/>
<line x1="81.5" y1="70.8456" x2="81.5" y2="28.1544" stroke="#F6F6F6" stroke-width="5" stroke-linecap="round"/>
<line x1="93.5" y1="73.5795" x2="93.5" y2="25.4205" stroke="#F6F6F6" stroke-width="5" stroke-linecap="round"/>
<line x1="105.5" y1="68.2694" x2="105.5" y2="30.7307" stroke="#F6F6F6" stroke-width="5" stroke-linecap="round"/>
<line x1="117.5" y1="79.391" x2="117.5" y2="19.609" stroke="#F6F6F6" stroke-width="5" stroke-linecap="round"/>
<line x1="129.5" y1="78.5391" x2="129.5" y2="20.461" stroke="#F6F6F6" stroke-width="5" stroke-linecap="round"/>
<line x1="141.5" y1="80.0985" x2="141.5" y2="18.9015" stroke="#F6F6F6" stroke-width="5" stroke-linecap="round"/>
<line x1="153.5" y1="67.8539" x2="153.5" y2="31.146" stroke="#F6F6F6" stroke-width="5" stroke-linecap="round"/>
<line x1="165.5" y1="73.6963" x2="165.5" y2="25.3036" stroke="#F6F6F6" stroke-width="5" stroke-linecap="round"/>
<line x1="177.5" y1="59.8573" x2="177.5" y2="39.1426" stroke="#F6F6F6" stroke-width="5" stroke-linecap="round"/>
<line x1="189.5" y1="75.6355" x2="189.5" y2="23.3644" stroke="#F6F6F6" stroke-width="5" stroke-linecap="round"/>
<line x1="201.5" y1="57.2871" x2="201.5" y2="41.7129" stroke="#F6F6F6" stroke-width="5" stroke-linecap="round"/>
<line x1="213.5" y1="73.2804" x2="213.5" y2="25.7196" stroke="#F6F6F6" stroke-width="5" stroke-linecap="round"/>
<line x1="225.5" y1="84.7028" x2="225.5" y2="14.2971" stroke="#F6F6F6" stroke-width="5" stroke-linecap="round"/>
<line x1="237.5" y1="63.3702" x2="237.5" y2="35.6298" stroke="#F6F6F6" stroke-width="5" stroke-linecap="round"/>
<line x1="249.5" y1="80.4939" x2="249.5" y2="18.5061" stroke="#F6F6F6" stroke-width="5" stroke-linecap="round"/>
<line x1="261.5" y1="72.6421" x2="261.5" y2="26.3579" stroke="#F6F6F6" stroke-width="5" stroke-linecap="round"/>
<line x1="273.5" y1="80.417" x2="273.5" y2="18.5831" stroke="#F6F6F6" stroke-width="5" stroke-linecap="round"/>
<line x1="285.5" y1="63.0391" x2="285.5" y2="35.9609" stroke="#F6F6F6" stroke-width="5" stroke-linecap="round"/>
<line x1="297.5" y1="65.3734" x2="297.5" y2="33.6265" stroke="#F6F6F6" stroke-width="5" stroke-linecap="round"/>
<line x1="309.5" y1="71.0372" x2="309.5" y2="27.9629" stroke="#F6F6F6" stroke-width="5" stroke-linecap="round"/>
<line x1="321.5" y1="86.1919" x2="321.5" y2="12.8081" stroke="#F6F6F6" stroke-width="5" stroke-linecap="round"/>
<line x1="333.5" y1="80.2871" x2="333.5" y2="18.7128" stroke="#F6F6F6" stroke-width="5" stroke-linecap="round"/>
<line x1="345.5" y1="64.9086" x2="345.5" y2="34.0915" stroke="#F6F6F6" stroke-width="5" stroke-linecap="round"/>
<line x1="357.5" y1="59.0881" x2="357.5" y2="39.9118" stroke="#F6F6F6" stroke-width="5" stroke-linecap="round"/>
<line x1="369.5" y1="66.6765" x2="369.5" y2="32.3234" stroke="#F6F6F6" stroke-width="5" stroke-linecap="round"/>
<line x1="381.5" y1="63.4492" x2="381.5" y2="35.5507" stroke="#F6F6F6" stroke-width="5" stroke-linecap="round"/>
<line x1="393.5" y1="69.8788" x2="393.5" y2="29.1213" stroke="#F6F6F6" stroke-width="5" stroke-linecap="round"/>
<line x1="405.5" y1="81.7893" x2="405.5" y2="17.2107" stroke="#F6F6F6" stroke-width="5" stroke-linecap="round"/>
<line x1="417.5" y1="62.6527" x2="417.5" y2="36.3474" stroke="#F6F6F6" stroke-width="5" stroke-linecap="round"/>
</svg>
