<svg width="423" height="99" viewBox="0 0 423 99" fill="none" xmlns="http://www.w3.org/2000/svg">
<line x1="9.5" y1="69.0703" x2="9.5" y2="29.9298" stroke="#F6F6F6" stroke-width="5" stroke-linecap="round"/>
<line x1="21.5" y1="75.0575" x2="21.5" y2="23.9424" stroke="#F6F6F6" stroke-width="5" stroke-linecap="round"/>
<line x1="33.5" y1="80.2673" x2="33.5" y2="18.7326" stroke="#F6F6F6" stroke-width="5" stroke-linecap="round"/>
<line x1="45.5" y1="57.5474" x2="45.5" y2="41.4527" stroke="#F6F6F6" stroke-width="5" stroke-linecap="round"/>
<line x1="57.5" y1="71.6266" x2="57.5" y2="27.3735" stroke="#F6F6F6" stroke-width="5" stroke-linecap="round"/>
<line x1="69.5" y1="83.103" x2="69.5" y2="15.897" stroke="#F6F6F6" stroke-width="5" stroke-linecap="round"/>
<line x1="81.5" y1="69.2137" x2="81.5" y2="29.7863" stroke="#F6F6F6" stroke-width="5" stroke-linecap="round"/>
<line x1="93.5" y1="85.0684" x2="93.5" y2="13.9317" stroke="#F6F6F6" stroke-width="5" stroke-linecap="round"/>
<line x1="105.5" y1="70.3618" x2="105.5" y2="28.6382" stroke="#F6F6F6" stroke-width="5" stroke-linecap="round"/>
<line x1="117.5" y1="78.8591" x2="117.5" y2="20.1409" stroke="#F6F6F6" stroke-width="5" stroke-linecap="round"/>
<line x1="129.5" y1="84.9364" x2="129.5" y2="14.0636" stroke="#F6F6F6" stroke-width="5" stroke-linecap="round"/>
<line x1="141.5" y1="77.1562" x2="141.5" y2="21.8437" stroke="#F6F6F6" stroke-width="5" stroke-linecap="round"/>
<line x1="153.5" y1="78.5823" x2="153.5" y2="20.4177" stroke="#F6F6F6" stroke-width="5" stroke-linecap="round"/>
<line x1="165.5" y1="85.3091" x2="165.5" y2="13.6908" stroke="#F6F6F6" stroke-width="5" stroke-linecap="round"/>
<line x1="177.5" y1="71.5505" x2="177.5" y2="27.4495" stroke="#F6F6F6" stroke-width="5" stroke-linecap="round"/>
<line x1="189.5" y1="71.5214" x2="189.5" y2="27.4787" stroke="#F6F6F6" stroke-width="5" stroke-linecap="round"/>
<line x1="201.5" y1="62.0148" x2="201.5" y2="36.9852" stroke="#F6F6F6" stroke-width="5" stroke-linecap="round"/>
<line x1="213.5" y1="66.012" x2="213.5" y2="32.9879" stroke="#F6F6F6" stroke-width="5" stroke-linecap="round"/>
<line x1="225.5" y1="64.8417" x2="225.5" y2="34.1583" stroke="#F6F6F6" stroke-width="5" stroke-linecap="round"/>
<line x1="237.5" y1="79.8711" x2="237.5" y2="19.1289" stroke="#F6F6F6" stroke-width="5" stroke-linecap="round"/>
<line x1="249.5" y1="73.1342" x2="249.5" y2="25.8659" stroke="#F6F6F6" stroke-width="5" stroke-linecap="round"/>
<line x1="261.5" y1="73.4952" x2="261.5" y2="25.5047" stroke="#F6F6F6" stroke-width="5" stroke-linecap="round"/>
<line x1="273.5" y1="74.8833" x2="273.5" y2="24.1167" stroke="#F6F6F6" stroke-width="5" stroke-linecap="round"/>
<line x1="285.5" y1="70.3147" x2="285.5" y2="28.6853" stroke="#F6F6F6" stroke-width="5" stroke-linecap="round"/>
<line x1="297.5" y1="62.4622" x2="297.5" y2="36.5379" stroke="#F6F6F6" stroke-width="5" stroke-linecap="round"/>
<line x1="309.5" y1="59.4613" x2="309.5" y2="39.5387" stroke="#F6F6F6" stroke-width="5" stroke-linecap="round"/>
<line x1="321.5" y1="80.0621" x2="321.5" y2="18.9379" stroke="#F6F6F6" stroke-width="5" stroke-linecap="round"/>
<line x1="333.5" y1="74.1586" x2="333.5" y2="24.8415" stroke="#F6F6F6" stroke-width="5" stroke-linecap="round"/>
<line x1="345.5" y1="62.4707" x2="345.5" y2="36.5294" stroke="#F6F6F6" stroke-width="5" stroke-linecap="round"/>
<line x1="357.5" y1="57.8257" x2="357.5" y2="41.1743" stroke="#F6F6F6" stroke-width="5" stroke-linecap="round"/>
<line x1="369.5" y1="67.972" x2="369.5" y2="31.0279" stroke="#F6F6F6" stroke-width="5" stroke-linecap="round"/>
<line x1="381.5" y1="74.7355" x2="381.5" y2="24.2646" stroke="#F6F6F6" stroke-width="5" stroke-linecap="round"/>
<line x1="393.5" y1="72.4207" x2="393.5" y2="26.5794" stroke="#F6F6F6" stroke-width="5" stroke-linecap="round"/>
<line x1="405.5" y1="86.3923" x2="405.5" y2="12.6076" stroke="#F6F6F6" stroke-width="5" stroke-linecap="round"/>
<line x1="417.5" y1="75.2634" x2="417.5" y2="23.7365" stroke="#F6F6F6" stroke-width="5" stroke-linecap="round"/>
</svg>
