<svg width="423" height="99" viewBox="0 0 423 99" fill="none" xmlns="http://www.w3.org/2000/svg">
<line x1="9.5" y1="76.9058" x2="9.5" y2="22.0941" stroke="#F6F6F6" stroke-width="5" stroke-linecap="round"/>
<line x1="21.5" y1="86.1584" x2="21.5" y2="12.8416" stroke="#F6F6F6" stroke-width="5" stroke-linecap="round"/>
<line x1="33.5" y1="86.2185" x2="33.5" y2="12.7814" stroke="#F6F6F6" stroke-width="5" stroke-linecap="round"/>
<line x1="45.5" y1="83.5715" x2="45.5" y2="15.4284" stroke="#F6F6F6" stroke-width="5" stroke-linecap="round"/>
<line x1="57.5" y1="78.691" x2="57.5" y2="20.309" stroke="#F6F6F6" stroke-width="5" stroke-linecap="round"/>
<line x1="69.5" y1="84.5833" x2="69.5" y2="14.4168" stroke="#F6F6F6" stroke-width="5" stroke-linecap="round"/>
<line x1="81.5" y1="84.6821" x2="81.5" y2="14.3179" stroke="#F6F6F6" stroke-width="5" stroke-linecap="round"/>
<line x1="93.5" y1="60.4949" x2="93.5" y2="38.5051" stroke="#F6F6F6" stroke-width="5" stroke-linecap="round"/>
<line x1="105.5" y1="72.9462" x2="105.5" y2="26.0538" stroke="#F6F6F6" stroke-width="5" stroke-linecap="round"/>
<line x1="117.5" y1="58.7743" x2="117.5" y2="40.2257" stroke="#F6F6F6" stroke-width="5" stroke-linecap="round"/>
<line x1="129.5" y1="60.4669" x2="129.5" y2="38.5331" stroke="#F6F6F6" stroke-width="5" stroke-linecap="round"/>
<line x1="141.5" y1="77.7993" x2="141.5" y2="21.2006" stroke="#F6F6F6" stroke-width="5" stroke-linecap="round"/>
<line x1="153.5" y1="73.616" x2="153.5" y2="25.3841" stroke="#F6F6F6" stroke-width="5" stroke-linecap="round"/>
<line x1="165.5" y1="85.7365" x2="165.5" y2="13.2635" stroke="#F6F6F6" stroke-width="5" stroke-linecap="round"/>
<line x1="177.5" y1="69.8337" x2="177.5" y2="29.1662" stroke="#F6F6F6" stroke-width="5" stroke-linecap="round"/>
<line x1="189.5" y1="66.371" x2="189.5" y2="32.6291" stroke="#F6F6F6" stroke-width="5" stroke-linecap="round"/>
<line x1="201.5" y1="81.1896" x2="201.5" y2="17.8105" stroke="#F6F6F6" stroke-width="5" stroke-linecap="round"/>
<line x1="213.5" y1="84.3995" x2="213.5" y2="14.6006" stroke="#F6F6F6" stroke-width="5" stroke-linecap="round"/>
<line x1="225.5" y1="74.3125" x2="225.5" y2="24.6875" stroke="#F6F6F6" stroke-width="5" stroke-linecap="round"/>
<line x1="237.5" y1="67.2103" x2="237.5" y2="31.7897" stroke="#F6F6F6" stroke-width="5" stroke-linecap="round"/>
<line x1="249.5" y1="62.0369" x2="249.5" y2="36.9631" stroke="#F6F6F6" stroke-width="5" stroke-linecap="round"/>
<line x1="261.5" y1="76.7054" x2="261.5" y2="22.2946" stroke="#F6F6F6" stroke-width="5" stroke-linecap="round"/>
<line x1="273.5" y1="63.969" x2="273.5" y2="35.031" stroke="#F6F6F6" stroke-width="5" stroke-linecap="round"/>
<line x1="285.5" y1="69.6803" x2="285.5" y2="29.3198" stroke="#F6F6F6" stroke-width="5" stroke-linecap="round"/>
<line x1="297.5" y1="69.3112" x2="297.5" y2="29.6888" stroke="#F6F6F6" stroke-width="5" stroke-linecap="round"/>
<line x1="309.5" y1="63.6656" x2="309.5" y2="35.3343" stroke="#F6F6F6" stroke-width="5" stroke-linecap="round"/>
<line x1="321.5" y1="77.1132" x2="321.5" y2="21.8868" stroke="#F6F6F6" stroke-width="5" stroke-linecap="round"/>
<line x1="333.5" y1="75.7542" x2="333.5" y2="23.2458" stroke="#F6F6F6" stroke-width="5" stroke-linecap="round"/>
<line x1="345.5" y1="58.6753" x2="345.5" y2="40.3247" stroke="#F6F6F6" stroke-width="5" stroke-linecap="round"/>
<line x1="357.5" y1="64.5756" x2="357.5" y2="34.4245" stroke="#F6F6F6" stroke-width="5" stroke-linecap="round"/>
<line x1="369.5" y1="80.4089" x2="369.5" y2="18.591" stroke="#F6F6F6" stroke-width="5" stroke-linecap="round"/>
<line x1="381.5" y1="80.3091" x2="381.5" y2="18.6909" stroke="#F6F6F6" stroke-width="5" stroke-linecap="round"/>
<line x1="393.5" y1="72.8973" x2="393.5" y2="26.1027" stroke="#F6F6F6" stroke-width="5" stroke-linecap="round"/>
<line x1="405.5" y1="75.8998" x2="405.5" y2="23.1002" stroke="#F6F6F6" stroke-width="5" stroke-linecap="round"/>
<line x1="417.5" y1="68.8884" x2="417.5" y2="30.1115" stroke="#F6F6F6" stroke-width="5" stroke-linecap="round"/>
</svg>
