<svg width="423" height="99" viewBox="0 0 423 99" fill="none" xmlns="http://www.w3.org/2000/svg">
<line x1="9.5" y1="70.1895" x2="9.5" y2="28.8104" stroke="#F6F6F6" stroke-width="5" stroke-linecap="round"/>
<line x1="21.5" y1="75.441" x2="21.5" y2="23.559" stroke="#F6F6F6" stroke-width="5" stroke-linecap="round"/>
<line x1="33.5" y1="74.4485" x2="33.5" y2="24.5514" stroke="#F6F6F6" stroke-width="5" stroke-linecap="round"/>
<line x1="45.5" y1="63.7262" x2="45.5" y2="35.2738" stroke="#F6F6F6" stroke-width="5" stroke-linecap="round"/>
<line x1="57.5" y1="70.1017" x2="57.5" y2="28.8984" stroke="#F6F6F6" stroke-width="5" stroke-linecap="round"/>
<line x1="69.5" y1="75.2501" x2="69.5" y2="23.7499" stroke="#F6F6F6" stroke-width="5" stroke-linecap="round"/>
<line x1="81.5" y1="71.4615" x2="81.5" y2="27.5385" stroke="#F6F6F6" stroke-width="5" stroke-linecap="round"/>
<line x1="93.5" y1="68.6111" x2="93.5" y2="30.3889" stroke="#F6F6F6" stroke-width="5" stroke-linecap="round"/>
<line x1="105.5" y1="68.9164" x2="105.5" y2="30.0836" stroke="#F6F6F6" stroke-width="5" stroke-linecap="round"/>
<line x1="117.5" y1="84.6936" x2="117.5" y2="14.3064" stroke="#F6F6F6" stroke-width="5" stroke-linecap="round"/>
<line x1="129.5" y1="78.2725" x2="129.5" y2="20.7275" stroke="#F6F6F6" stroke-width="5" stroke-linecap="round"/>
<line x1="141.5" y1="73.9117" x2="141.5" y2="25.0883" stroke="#F6F6F6" stroke-width="5" stroke-linecap="round"/>
<line x1="153.5" y1="60.0556" x2="153.5" y2="38.9443" stroke="#F6F6F6" stroke-width="5" stroke-linecap="round"/>
<line x1="165.5" y1="61.0989" x2="165.5" y2="37.9011" stroke="#F6F6F6" stroke-width="5" stroke-linecap="round"/>
<line x1="177.5" y1="72.3542" x2="177.5" y2="26.6458" stroke="#F6F6F6" stroke-width="5" stroke-linecap="round"/>
<line x1="189.5" y1="71.8263" x2="189.5" y2="27.1737" stroke="#F6F6F6" stroke-width="5" stroke-linecap="round"/>
<line x1="201.5" y1="76.8208" x2="201.5" y2="22.1792" stroke="#F6F6F6" stroke-width="5" stroke-linecap="round"/>
<line x1="213.5" y1="77.3836" x2="213.5" y2="21.6164" stroke="#F6F6F6" stroke-width="5" stroke-linecap="round"/>
<line x1="225.5" y1="60.4231" x2="225.5" y2="38.5769" stroke="#F6F6F6" stroke-width="5" stroke-linecap="round"/>
<line x1="237.5" y1="62.5952" x2="237.5" y2="36.4049" stroke="#F6F6F6" stroke-width="5" stroke-linecap="round"/>
<line x1="249.5" y1="73.8633" x2="249.5" y2="25.1367" stroke="#F6F6F6" stroke-width="5" stroke-linecap="round"/>
<line x1="261.5" y1="81.385" x2="261.5" y2="17.615" stroke="#F6F6F6" stroke-width="5" stroke-linecap="round"/>
<line x1="273.5" y1="85.2823" x2="273.5" y2="13.7177" stroke="#F6F6F6" stroke-width="5" stroke-linecap="round"/>
<line x1="285.5" y1="64.038" x2="285.5" y2="34.962" stroke="#F6F6F6" stroke-width="5" stroke-linecap="round"/>
<line x1="297.5" y1="58.3094" x2="297.5" y2="40.6906" stroke="#F6F6F6" stroke-width="5" stroke-linecap="round"/>
<line x1="309.5" y1="79.2506" x2="309.5" y2="19.7494" stroke="#F6F6F6" stroke-width="5" stroke-linecap="round"/>
<line x1="321.5" y1="61.4036" x2="321.5" y2="37.5964" stroke="#F6F6F6" stroke-width="5" stroke-linecap="round"/>
<line x1="333.5" y1="77.2458" x2="333.5" y2="21.7542" stroke="#F6F6F6" stroke-width="5" stroke-linecap="round"/>
<line x1="345.5" y1="69.487" x2="345.5" y2="29.513" stroke="#F6F6F6" stroke-width="5" stroke-linecap="round"/>
<line x1="357.5" y1="60.8303" x2="357.5" y2="38.1697" stroke="#F6F6F6" stroke-width="5" stroke-linecap="round"/>
<line x1="369.5" y1="74.9393" x2="369.5" y2="24.0607" stroke="#F6F6F6" stroke-width="5" stroke-linecap="round"/>
<line x1="381.5" y1="70.4301" x2="381.5" y2="28.5699" stroke="#F6F6F6" stroke-width="5" stroke-linecap="round"/>
<line x1="393.5" y1="60.5703" x2="393.5" y2="38.4296" stroke="#F6F6F6" stroke-width="5" stroke-linecap="round"/>
<line x1="405.5" y1="86.5817" x2="405.5" y2="12.4183" stroke="#F6F6F6" stroke-width="5" stroke-linecap="round"/>
<line x1="417.5" y1="70.6497" x2="417.5" y2="28.3503" stroke="#F6F6F6" stroke-width="5" stroke-linecap="round"/>
</svg>
